<?xml version="1.0" encoding="UTF-8" standalone="no"?>
<svg
   viewBox="0 0 512 512"
   version="1.1"
   id="svg1"
   sodipodi:docname="circle-notch.svg"
   inkscape:version="1.3 (0e150ed6c4, 2023-07-21)"
   inkscape:export-filename="circle-notch.png"
   inkscape:export-xdpi="96"
   inkscape:export-ydpi="96"
   xmlns:inkscape="http://www.inkscape.org/namespaces/inkscape"
   xmlns:sodipodi="http://sodipodi.sourceforge.net/DTD/sodipodi-0.dtd"
   xmlns="http://www.w3.org/2000/svg"
   xmlns:svg="http://www.w3.org/2000/svg">
  <defs
     id="defs1" />
  <sodipodi:namedview
     id="namedview1"
     pagecolor="#ffffff"
     bordercolor="#000000"
     borderopacity="0.25"
     inkscape:showpageshadow="2"
     inkscape:pageopacity="0.0"
     inkscape:pagecheckerboard="0"
     inkscape:deskcolor="#d1d1d1"
     inkscape:zoom="1.3030376"
     inkscape:cx="6.5232193"
     inkscape:cy="226.7778"
     inkscape:window-width="2778"
     inkscape:window-height="1504"
     inkscape:window-x="2378"
     inkscape:window-y="200"
     inkscape:window-maximized="0"
     inkscape:current-layer="svg1" />
  <path
     d="M222.7 32.1c5 16.9-4.6 34.8-21.5 39.8C121.8 95.6 64 169.1 64 256c0 106 86 192 192 192s192-86 192-192c0-86.9-57.8-160.4-137.1-184.1c-16.9-5-26.6-22.9-21.5-39.8s22.9-26.6 39.8-21.5C434.9 42.1 512 140 512 256c0 141.4-114.6 256-256 256S0 397.4 0 256C0 140 77.1 42.1 182.9 10.6c16.9-5 34.8 4.6 39.8 21.5z"
     id="path1"
     style="fill:goldenrod" />
  <path
     style="fill:goldenrod;stroke-width:0.767438"
     d="M 237.13821,511.03197 C 200.54489,507.32022 173.09094,499.85435 144.27826,485.77948 117.02201,472.46493 95.021563,456.51295 73.230453,434.26448 8.8280844,368.51041 -15.046692,273.95187 10.397682,185.40873 19.451498,153.90262 34.233263,125.08205 55.306504,97.848289 63.738163,86.951735 84.62768,65.866336 95.929695,56.844179 113.51207,42.808544 139.93885,27.13988 158.85958,19.532523 c 11.64973,-4.683948 26.1066,-9.244701 30.69883,-9.6846531 8.87979,-0.8507166 19.06692,3.1117431 25.39626,9.8783191 8.89308,9.507427 11.07929,23.782568 5.38002,35.129572 -4.48172,8.92289 -10.67717,13.795214 -22.51305,17.705057 -30.3672,10.031448 -54.93302,24.958424 -76.98033,46.775722 -16.07171,15.90403 -27.256973,31.46658 -37.231658,51.80204 -13.489519,27.50115 -19.634631,53.82654 -19.705653,84.41813 -0.01764,7.59763 0.384829,17.44002 0.894375,21.87197 9.780534,85.06975 73.552586,152.88381 158.003096,168.01771 32.21673,5.77337 68.89066,2.5102 99.74702,-8.87531 17.51513,-6.46279 38.67525,-18.4215 53.49591,-30.23336 31.2802,-24.92988 55.48122,-61.80347 65.57032,-99.90542 6.76132,-25.53444 8.39226,-50.66837 4.94468,-76.20103 C 436.6767,157.04039 385.9203,96.149758 315.46146,72.957792 305.26208,69.600605 301.88697,67.693112 297.11011,62.586266 285.62559,50.308385 285.6727,31.827405 297.21935,19.730781 c 6.72697,-7.047379 16.13573,-10.7314529 25.23662,-9.8815989 10.30749,0.9625289 40.26238,12.8372049 58.37015,23.1390159 20.40774,11.610299 36.8385,23.983637 53.43836,40.242255 42.08972,41.224497 67.28556,91.625117 75.41724,150.861317 1.05493,7.68472 1.36847,15.08953 1.36481,32.23238 -0.005,23.18608 -0.70176,31.24418 -4.24142,49.04858 -20.25937,101.90453 -99.94892,181.4881 -201.74868,201.48036 -15.88593,3.11981 -24.64517,3.94287 -44.8951,4.21858 -10.97435,0.14942 -21.33476,0.13156 -23.02312,-0.0397 z"
     id="path2" />
</svg>
